<svg xmlns="http://www.w3.org/2000/svg" xmlns:xlink="http://www.w3.org/1999/xlink" width="800" zoomAndPan="magnify" viewBox="0 0 600 599.999999" height="800" preserveAspectRatio="xMidYMid meet" version="1.0"><defs><clipPath id="5bb127d65c"><path d="M 303 55.148438 L 552.75 55.148438 L 552.75 300 L 303 300 Z M 303 55.148438 " clip-rule="nonzero"/></clipPath></defs><path fill="#333333" d="M 270.367188 264.90625 C 275.617188 266.78125 282.703125 266.84375 286.777344 271.230469 C 287.054688 271.527344 286.621094 271.886719 286.320312 271.675781 C 282.980469 269.316406 278.726562 268.71875 274.90625 267.976562 C 273.066406 267.625 271.347656 266.890625 269.996094 265.527344 C 269.722656 265.25 270 264.777344 270.367188 264.90625 " fill-opacity="1" fill-rule="nonzero"/><path fill="#333333" d="M 268.492188 261.042969 C 269.257812 260.789062 269.980469 260.796875 270.789062 260.832031 C 271.082031 260.847656 271.320312 261.128906 271.519531 261.292969 C 272.027344 261.730469 272.863281 261.898438 273.480469 262.070312 C 275.730469 262.703125 277.882812 263.34375 280.046875 264.285156 C 280.484375 264.476562 280.355469 265.164062 279.875 265.003906 C 277.640625 264.273438 275.371094 263.878906 273.101562 263.355469 C 272.277344 263.164062 271.53125 262.855469 270.796875 262.421875 C 270.105469 262.011719 269.242188 262.101562 268.503906 261.785156 C 268.128906 261.625 268.132812 261.160156 268.492188 261.042969 " fill-opacity="1" fill-rule="nonzero"/><path fill="#333333" d="M 274.078125 270.839844 C 277.988281 270.636719 281.535156 274.015625 285.507812 274.203125 C 285.988281 274.222656 286.007812 274.949219 285.566406 275.015625 C 281.769531 275.617188 277.324219 273.589844 273.894531 271.863281 C 273.386719 271.609375 273.546875 270.867188 274.078125 270.839844 " fill-opacity="1" fill-rule="nonzero"/><path fill="#333333" d="M 275.296875 275.425781 C 276.449219 275.671875 277.605469 276.277344 278.707031 276.730469 C 279.757812 277.15625 280.828125 277.539062 281.867188 277.984375 C 282.148438 278.105469 281.996094 278.550781 281.714844 278.464844 C 279.628906 277.839844 276.746094 277.582031 275.0625 276.007812 C 274.832031 275.792969 274.945312 275.351562 275.296875 275.425781 " fill-opacity="1" fill-rule="nonzero"/><path fill="#333333" d="M 276.109375 279.824219 C 276.09375 279.835938 276.074219 279.851562 276.0625 279.859375 C 276.128906 279.664062 276.371094 279.523438 276.578125 279.515625 C 277.839844 279.492188 279.234375 280.257812 280.378906 280.773438 C 281.28125 281.183594 282.382812 281.632812 283.066406 282.394531 C 283.296875 282.652344 283.011719 282.972656 282.730469 282.773438 C 281.867188 282.160156 280.363281 281.925781 279.390625 281.617188 C 278.386719 281.304688 276.921875 281.191406 276.125 280.441406 C 275.941406 280.261719 275.976562 280 276.109375 279.824219 " fill-opacity="1" fill-rule="nonzero"/><path fill="#333333" d="M 521.351562 518.933594 C 521.648438 517.046875 524.054688 516.761719 525.625 516.582031 C 527.738281 516.351562 530.191406 516.761719 532.28125 517.324219 C 532.984375 517.515625 532.769531 518.542969 532.066406 518.402344 C 530.109375 518.011719 528.199219 518.074219 526.269531 518.382812 C 524.839844 518.609375 523.484375 519.570312 522.066406 519.601562 C 521.722656 519.609375 521.289062 519.347656 521.351562 518.933594 " fill-opacity="1" fill-rule="nonzero"/><path fill="#333333" d="M 523.5 511.992188 C 524.285156 511.265625 525.289062 511.050781 526.226562 511.417969 C 526.609375 511.371094 527.007812 511.433594 527.410156 511.589844 C 528.070312 511.832031 528.628906 511.765625 529.324219 511.707031 C 530.675781 511.589844 532.042969 511.550781 533.066406 512.652344 C 533.519531 513.136719 532.917969 513.902344 532.355469 513.515625 C 531.46875 512.898438 530.1875 513.539062 529.3125 513.78125 C 528.996094 513.867188 528.40625 514.144531 528.050781 514.101562 C 528.15625 514.113281 526.636719 513.957031 526.820312 513.824219 C 526.5 514.042969 525.925781 514.015625 525.589844 513.785156 C 525.425781 513.667969 524.621094 513.714844 524.402344 513.6875 C 524.066406 513.648438 523.835938 513.460938 523.574219 513.257812 C 523.132812 512.921875 523.132812 512.332031 523.5 511.992188 " fill-opacity="1" fill-rule="nonzero"/><path fill="#333333" d="M 524.429688 505.792969 C 525.0625 504.882812 526.492188 505.140625 527.480469 505.269531 C 528.671875 505.421875 530.003906 505.941406 531.195312 505.707031 C 532.207031 505.5 532.804688 507.007812 531.769531 507.300781 C 530.652344 507.613281 529.460938 507.433594 528.300781 507.296875 C 527.699219 507.226562 527.097656 507.136719 526.492188 507.078125 C 525.96875 507.023438 525.292969 507.097656 524.804688 506.847656 C 524.417969 506.644531 524.160156 506.1875 524.429688 505.792969 " fill-opacity="1" fill-rule="nonzero"/><path fill="#333333" d="M 514.191406 522.285156 C 516.046875 521.691406 518.40625 522.257812 520.367188 522.386719 C 522.917969 522.558594 525.386719 522.316406 527.898438 522.113281 C 529.015625 522.019531 529.167969 523.695312 528.210938 523.984375 C 525.972656 524.660156 523.570312 524.839844 521.207031 524.835938 C 518.925781 524.835938 516.023438 524.863281 514.019531 523.515625 C 513.539062 523.199219 513.71875 522.4375 514.191406 522.285156 " fill-opacity="1" fill-rule="nonzero"/><path fill="#333333" d="M 505.125 525.71875 C 507.527344 524.761719 510.15625 525.546875 512.671875 526.179688 C 514.175781 526.558594 515.703125 526.835938 517.21875 527.183594 C 518 527.363281 519.421875 527.921875 520.1875 527.570312 C 520.796875 527.289062 521.3125 528.117188 520.859375 528.5625 C 519.21875 530.183594 516.644531 529.269531 514.527344 529.101562 C 513.007812 528.980469 511.480469 528.515625 509.96875 528.222656 C 508.230469 527.878906 506.710938 527.730469 505.089844 526.890625 C 504.558594 526.617188 504.628906 525.917969 505.125 525.71875 " fill-opacity="1" fill-rule="nonzero"/><path fill="#333333" d="M 503.742188 529.277344 C 504.164062 528.113281 506.261719 529.132812 506.992188 529.382812 C 508.417969 529.867188 509.917969 530.445312 511.394531 530.582031 C 512.546875 530.6875 512.417969 532.394531 511.289062 532.339844 C 510.160156 532.28125 502.984375 531.371094 503.742188 529.277344 " fill-opacity="1" fill-rule="nonzero"/><path fill="#333333" d="M 522.203125 499.941406 C 522.027344 499.699219 522.097656 499.335938 522.28125 499.148438 C 523.1875 498.207031 524.421875 499.175781 525.507812 499.410156 C 526.242188 499.570312 527 499.910156 527.738281 500.117188 C 528.320312 500.285156 528.761719 500.71875 529.164062 501.148438 C 529.644531 501.652344 528.929688 502.449219 528.394531 502 C 527.417969 501.191406 526.128906 501.355469 524.960938 501.144531 C 524.003906 500.976562 522.816406 500.765625 522.203125 499.941406 " fill-opacity="1" fill-rule="nonzero"/><path fill="#333333" d="M 514.921875 492.28125 C 514.867188 491.882812 515.238281 491.535156 515.613281 491.535156 C 515.808594 491.535156 516 491.609375 516.144531 491.746094 C 516.25 491.84375 516.429688 492.488281 516.390625 492.46875 C 516.460938 491.703125 516.75 491.457031 517.261719 491.726562 C 517.621094 491.851562 517.988281 491.960938 518.355469 492.066406 C 519.058594 492.257812 519.765625 492.4375 520.472656 492.621094 C 521.347656 492.84375 522.183594 493.285156 522.96875 493.742188 C 523.535156 494.070312 523.175781 495.03125 522.554688 494.773438 C 520.851562 494.066406 518.949219 494.269531 517.183594 494.007812 C 516.175781 493.859375 515.078125 493.371094 514.921875 492.28125 " fill-opacity="1" fill-rule="nonzero"/><path fill="#333333" d="M 506.722656 484.675781 C 506.722656 484.421875 506.828125 484.171875 507.011719 484.007812 C 507.332031 483.710938 507.578125 483.875 507.941406 483.820312 C 507.871094 483.492188 507.984375 483.359375 508.285156 483.425781 C 508.394531 483.417969 508.503906 483.417969 508.609375 483.417969 C 509 483.425781 509.402344 483.546875 509.777344 483.671875 C 510.617188 483.941406 511.582031 484.5625 512.421875 484.667969 C 513.722656 484.828125 513.511719 486.714844 512.253906 486.636719 C 511.570312 486.59375 510.863281 486.308594 510.199219 486.101562 C 509.328125 485.828125 508.578125 485.734375 507.683594 485.691406 C 507.160156 485.671875 506.722656 485.195312 506.722656 484.675781 " fill-opacity="1" fill-rule="nonzero"/><path fill="#333333" d="M 489.527344 519.164062 C 491.199219 518.761719 492.628906 519.746094 494.039062 520.675781 C 495.957031 521.929688 498.359375 523.625 500.546875 524.128906 C 500.960938 524.21875 500.90625 524.855469 500.492188 524.847656 C 498.515625 524.820312 497.042969 523.792969 495.265625 522.933594 C 493.335938 522 491.394531 521.089844 489.476562 520.128906 C 489.019531 519.894531 489.023438 519.285156 489.527344 519.164062 " fill-opacity="1" fill-rule="nonzero"/><path fill="#333333" d="M 484.472656 512.890625 C 485.078125 512.648438 485.269531 512.648438 485.917969 512.75 C 486.476562 512.835938 487.566406 513.023438 488.039062 513.414062 C 488.742188 513.996094 489.605469 514.355469 490.351562 514.875 C 490.644531 515.121094 490.917969 515.386719 491.183594 515.660156 C 491.75 516.21875 493.359375 516.703125 494.199219 517.054688 C 494.972656 517.375 494.605469 518.640625 493.808594 518.414062 C 492.773438 518.117188 491.734375 517.898438 490.738281 517.472656 C 489.949219 517.128906 489.34375 516.457031 488.566406 516.0625 C 487.957031 515.757812 487.339844 515.167969 486.664062 515.074219 C 485.828125 514.949219 484.972656 514.472656 484.300781 513.96875 C 483.867188 513.648438 484.074219 513.054688 484.472656 512.890625 " fill-opacity="1" fill-rule="nonzero"/><path fill="#333333" d="M 477.332031 504.492188 C 478.703125 503.753906 480.222656 505.109375 481.265625 506.03125 C 483.089844 507.65625 485.140625 508.675781 487.527344 509.117188 C 488.394531 509.28125 488.195312 510.648438 487.351562 510.601562 C 485.757812 510.527344 483.5625 510.042969 482.148438 509.179688 C 481.402344 508.730469 480.78125 508.167969 480.132812 507.589844 C 479.226562 506.761719 478.101562 506.355469 477.210938 505.554688 C 476.828125 505.203125 476.917969 504.71875 477.332031 504.492188 " fill-opacity="1" fill-rule="nonzero"/><path fill="#333333" d="M 470.527344 497.398438 C 470.347656 496.960938 470.761719 496.585938 471.183594 496.738281 C 472.304688 497.15625 473.214844 497.941406 474.242188 498.539062 C 475.867188 499.480469 477.609375 500.132812 479.386719 500.640625 C 480.253906 500.882812 479.976562 502.347656 479.09375 502.15625 C 476.296875 501.535156 471.773438 500.425781 470.527344 497.398438 " fill-opacity="1" fill-rule="nonzero"/><path fill="#333333" d="M 463.308594 489.953125 C 463.234375 489.59375 463.550781 489.203125 463.933594 489.28125 C 465.5 489.585938 466.734375 490.847656 468.125 491.605469 C 469.453125 492.332031 471.019531 492.96875 472.507812 492.878906 C 473.207031 492.835938 473.5 493.992188 472.792969 494.125 C 471.109375 494.421875 469.484375 494.28125 467.828125 493.695312 C 466.105469 493.089844 463.710938 491.9375 463.308594 489.953125 " fill-opacity="1" fill-rule="nonzero"/><path fill="#333333" d="M 453.628906 479.910156 C 453.421875 479.5625 453.800781 479.046875 454.199219 479.242188 C 458.636719 481.464844 463.011719 484.269531 467.757812 485.800781 C 468.382812 486.011719 468.09375 486.878906 467.488281 486.734375 C 465.140625 486.167969 462.429688 485.257812 460.234375 484.199219 C 457.875 483.058594 455.03125 482.34375 453.628906 479.910156 " fill-opacity="1" fill-rule="nonzero"/><path fill="#333333" d="M 446.320312 472.507812 C 446.128906 472.007812 446.65625 471.617188 447.109375 471.726562 C 448.652344 472.109375 450.511719 473.042969 451.894531 473.859375 C 453.8125 474.984375 456.273438 476.914062 458.433594 477.214844 C 459.054688 477.300781 459.011719 478.335938 458.390625 478.292969 C 455.917969 478.128906 454.1875 477.4375 451.945312 476.238281 C 449.945312 475.175781 447.207031 474.871094 446.320312 472.507812 " fill-opacity="1" fill-rule="nonzero"/><path fill="#333333" d="M 440.292969 465.222656 C 440.117188 464.714844 440.621094 464.316406 441.082031 464.433594 C 441.789062 464.609375 442.328125 465.042969 443.003906 465.34375 C 443.773438 465.6875 444.605469 465.921875 445.394531 466.222656 C 447.015625 466.835938 448.6875 467.066406 450 468.320312 C 450.472656 468.777344 449.859375 469.597656 449.324219 469.195312 C 447.738281 467.992188 445.167969 467.863281 443.304688 467.304688 C 442.027344 466.925781 440.765625 466.578125 440.292969 465.222656 " fill-opacity="1" fill-rule="nonzero"/><path fill="#333333" d="M 439.621094 460.855469 C 438.964844 460.03125 440.078125 458.890625 440.9375 459.441406 C 441.363281 459.722656 441.726562 460.074219 442.199219 460.269531 C 442.683594 460.476562 443.191406 460.558594 443.703125 460.609375 C 444.636719 460.71875 444.578125 462.226562 443.667969 462.238281 C 442.164062 462.261719 440.65625 462.15625 439.621094 460.855469 " fill-opacity="1" fill-rule="nonzero"/><path fill="#333333" d="M 155.945312 190.234375 C 161.878906 192.519531 166.808594 196.84375 172.832031 199.007812 C 173.492188 199.25 173.082031 200.175781 172.4375 199.964844 C 166.4375 198 160.871094 194.433594 155.578125 190.9375 C 155.171875 190.671875 155.507812 190.066406 155.945312 190.234375 " fill-opacity="1" fill-rule="nonzero"/><path fill="#333333" d="M 125.710938 178.152344 C 125.464844 177.804688 125.804688 177.273438 126.203125 177.574219 C 132.5625 182.425781 137.890625 188.503906 144.308594 193.347656 C 152.03125 199.179688 161.238281 203.003906 169.828125 207.242188 C 170.789062 207.714844 170.183594 209.144531 169.207031 208.707031 C 152.816406 201.378906 136.566406 193.421875 125.710938 178.152344 " fill-opacity="1" fill-rule="nonzero"/><path fill="#333333" d="M 126.304688 190.722656 C 125.839844 190.121094 126.515625 189.464844 127.101562 189.949219 C 133.769531 195.433594 139.972656 200.890625 147.277344 205.53125 C 154.582031 210.160156 163.605469 215.5 171.960938 217.238281 C 172.621094 217.375 172.445312 218.4375 171.800781 218.371094 C 164.117188 217.570312 156.238281 213.460938 149.472656 209.648438 C 140.765625 204.738281 132.488281 198.730469 126.304688 190.722656 " fill-opacity="1" fill-rule="nonzero"/><path fill="#333333" d="M 136.863281 205.417969 C 142.105469 207.585938 146.003906 212.050781 151.042969 214.628906 C 151.828125 215.027344 151.230469 216.09375 150.460938 215.757812 C 145.171875 213.472656 140.625 210.117188 136.25 206.300781 C 135.726562 205.839844 136.308594 205.191406 136.863281 205.417969 " fill-opacity="1" fill-rule="nonzero"/><path fill="#333333" d="M 158.039062 195.925781 C 157.679688 195.433594 158.167969 194.871094 158.691406 194.96875 C 160.058594 195.226562 161.429688 196.128906 162.660156 196.808594 C 164.082031 197.597656 165.46875 198.46875 166.847656 199.332031 C 168.167969 200.164062 166.820312 202.046875 165.511719 201.199219 C 163.144531 199.667969 159.726562 198.25 158.039062 195.925781 " fill-opacity="1" fill-rule="nonzero"/><path fill="#333333" d="M 181.996094 120.203125 C 187.824219 117.648438 195.792969 118.003906 202.207031 118.515625 C 209.226562 119.070312 216.320312 121.773438 221.230469 127.210938 C 221.96875 128.027344 221.050781 129.09375 220.164062 128.421875 C 214.289062 123.964844 207.484375 122.140625 200.417969 121.714844 C 194.335938 121.347656 188.207031 123.074219 182.183594 122.175781 C 181.066406 122.003906 181.171875 120.5625 181.996094 120.203125 " fill-opacity="1" fill-rule="nonzero"/><path fill="#333333" d="M 190.125 126.550781 C 195.1875 124.734375 202.066406 124.753906 207.519531 125.722656 C 212.972656 126.695312 220.734375 128.480469 224.132812 133.425781 C 224.613281 134.125 223.90625 134.988281 223.140625 134.613281 C 218.492188 132.316406 213.6875 130.554688 208.714844 129.242188 C 202.613281 127.636719 196.523438 129.597656 190.40625 128.480469 C 189.421875 128.304688 189.183594 126.882812 190.125 126.550781 " fill-opacity="1" fill-rule="nonzero"/><path fill="#333333" d="M 192.335938 134.386719 C 202.332031 130.464844 219.296875 134.28125 227.875 141.449219 C 228.632812 142.089844 227.988281 143.515625 227.046875 142.972656 C 222.089844 140.105469 216.046875 138.488281 210.566406 137.3125 C 207.648438 136.691406 204.6875 136.226562 201.738281 135.867188 C 198.722656 135.503906 195.832031 136.402344 192.789062 136.007812 C 192.035156 135.910156 191.476562 134.722656 192.335938 134.386719 " fill-opacity="1" fill-rule="nonzero"/><path fill="#333333" d="M 194.40625 143.332031 C 197.300781 138.96875 205.65625 140.289062 210.371094 140.777344 C 214.027344 141.152344 217.546875 141.714844 220.917969 143.355469 C 223.871094 144.792969 227.390625 146.234375 230.046875 148.1875 C 230.722656 148.683594 230.039062 149.828125 229.316406 149.378906 C 227.464844 148.214844 225.003906 148.210938 223.027344 147.214844 C 218.382812 144.878906 213.6875 144.109375 208.707031 143.699219 C 204.464844 143.355469 199.332031 143.394531 195.355469 144.667969 C 194.535156 144.929688 193.984375 143.976562 194.40625 143.332031 " fill-opacity="1" fill-rule="nonzero"/><path fill="#333333" d="M 197.179688 151.390625 C 200.800781 147.335938 209.460938 148.664062 214.433594 149.429688 C 221.875 150.582031 229.972656 154.167969 235.703125 159.273438 C 236.425781 159.914062 235.46875 160.832031 234.738281 160.414062 C 229.277344 157.316406 223.699219 154.867188 217.707031 153.203125 C 210.84375 151.296875 204.796875 152.429688 198.113281 153.046875 C 197.164062 153.132812 196.527344 152.121094 197.179688 151.390625 " fill-opacity="1" fill-rule="nonzero"/><path fill="#333333" d="M 208.863281 157.902344 C 213.074219 156.230469 217.890625 157.585938 222.261719 158.742188 C 226.96875 159.984375 231.796875 161.488281 235.167969 165.332031 C 235.660156 165.898438 234.882812 166.554688 234.328125 166.171875 C 226.761719 160.941406 217.824219 160.578125 209.269531 159.335938 C 208.617188 159.238281 208.097656 158.207031 208.863281 157.902344 " fill-opacity="1" fill-rule="nonzero"/><path fill="#333333" d="M 211.683594 166.109375 C 219.121094 163.082031 232.625 166.78125 237.707031 173.832031 C 238.378906 174.765625 237.375 175.84375 236.402344 175.203125 C 232.964844 172.949219 229.875 170.933594 225.941406 169.6875 C 221.273438 168.210938 216.515625 168.71875 211.863281 167.527344 C 211.230469 167.363281 211.089844 166.351562 211.683594 166.109375 " fill-opacity="1" fill-rule="nonzero"/><path fill="#333333" d="M 221.480469 175.230469 C 226.976562 172.417969 234.738281 177.25 239 181.035156 C 239.488281 181.472656 239.171875 182.371094 238.484375 182.078125 C 236.128906 181.074219 234.042969 179.90625 231.757812 178.722656 C 228.5 177.035156 225.035156 177.671875 221.726562 176.605469 C 221.132812 176.414062 220.886719 175.53125 221.480469 175.230469 " fill-opacity="1" fill-rule="nonzero"/><path fill="#333333" d="M 227.519531 182.707031 C 228.480469 181.714844 231.015625 182.242188 232.277344 182.40625 C 234.183594 182.660156 236.175781 183.191406 237.566406 184.683594 C 238.21875 185.378906 237.398438 186.40625 236.640625 185.761719 C 235.085938 184.4375 232.859375 184.328125 230.96875 184.246094 C 229.863281 184.199219 228.324219 184.46875 227.46875 183.550781 C 227.222656 183.28125 227.304688 182.921875 227.519531 182.707031 " fill-opacity="1" fill-rule="nonzero"/><path fill="#333333" d="M 171.574219 179.074219 C 171.484375 178.5625 171.902344 178.109375 172.421875 178.183594 C 173.402344 178.324219 173.933594 178.851562 174.800781 179.359375 C 175.566406 179.808594 176.421875 180.128906 177.21875 180.523438 C 178.828125 181.324219 180.84375 181.351562 182.25 182.542969 C 183.132812 183.289062 182.007812 184.53125 181.089844 183.980469 C 180.871094 183.847656 179.617188 183.652344 179.34375 183.632812 C 178.140625 183.558594 176.8125 182.972656 175.714844 182.484375 C 174.101562 181.765625 171.917969 181.003906 171.574219 179.074219 " fill-opacity="1" fill-rule="nonzero"/><path fill="#333333" d="M 165.765625 180.40625 C 165.683594 179.972656 166.046875 179.542969 166.5 179.628906 C 168.359375 179.964844 169.941406 181.8125 171.476562 182.917969 C 173.894531 184.648438 176.660156 186.097656 179.574219 186.507812 C 180.570312 186.644531 180.648438 188.3125 179.617188 188.296875 C 176.753906 188.261719 174.152344 187.269531 171.589844 185.886719 C 169.546875 184.78125 166.214844 182.855469 165.765625 180.40625 " fill-opacity="1" fill-rule="nonzero"/><path fill="#333333" d="M 163.097656 184.171875 C 162.796875 183.5 163.59375 183.09375 164.125 183.324219 C 166.773438 184.460938 169.160156 186.585938 171.601562 188.148438 C 173.207031 189.175781 174.566406 190.261719 176.632812 189.976562 C 178.011719 189.789062 178.367188 191.863281 177.027344 192.128906 C 174.863281 192.554688 172.4375 191.757812 170.554688 190.503906 C 167.917969 188.761719 164.46875 187.183594 163.097656 184.171875 " fill-opacity="1" fill-rule="nonzero"/><path fill="#333333" d="M 161.546875 187.519531 C 162.851562 187.105469 164.003906 187.875 165.035156 188.730469 C 166.222656 189.699219 167.164062 190.949219 168.59375 191.589844 C 170.238281 192.324219 171.789062 193.261719 173.429688 194.003906 C 174.210938 194.359375 173.769531 195.65625 172.964844 195.371094 C 170.910156 194.660156 168.292969 193.890625 166.464844 192.632812 C 164.6875 191.410156 163.167969 189.941406 161.359375 188.753906 C 160.792969 188.382812 161.015625 187.6875 161.546875 187.519531 " fill-opacity="1" fill-rule="nonzero"/><path fill="#333333" d="M 193.089844 161.296875 C 194.039062 159.679688 197.035156 160.179688 198.71875 159.800781 C 199.480469 159.632812 200.6875 160.042969 201.5 159.992188 C 202.566406 159.921875 203.589844 159.867188 204.640625 160.230469 C 205.6875 160.59375 205.328125 162.144531 204.246094 161.863281 C 202.722656 161.460938 201.246094 162.183594 199.71875 161.96875 C 197.726562 161.6875 195.238281 163.238281 193.382812 162.191406 C 193.078125 162.019531 192.917969 161.59375 193.089844 161.296875 " fill-opacity="1" fill-rule="nonzero"/><path fill="#333333" d="M 191.09375 166.664062 C 192.058594 165.109375 194.355469 165.902344 195.898438 165.574219 C 197.269531 165.28125 198.949219 165.285156 199.957031 166.503906 C 200.246094 166.855469 199.859375 167.34375 199.46875 167.082031 C 197.925781 166.042969 196.648438 167.398438 195.109375 167.390625 C 193.929688 167.382812 192.464844 167.925781 191.367188 167.40625 C 191.113281 167.285156 190.945312 166.90625 191.09375 166.664062 " fill-opacity="1" fill-rule="nonzero"/><path fill="#333333" d="M 188.507812 172.585938 C 188.46875 171.398438 190.738281 171.125 191.527344 171.050781 C 192.539062 170.949219 193.53125 171.152344 194.5 171.519531 C 195.023438 171.722656 194.71875 172.445312 194.207031 172.292969 C 193.269531 172.007812 192.140625 172.195312 191.238281 172.429688 C 190.503906 172.621094 189.75 173.25 188.976562 173.214844 C 188.597656 173.207031 188.523438 172.878906 188.507812 172.585938 " fill-opacity="1" fill-rule="nonzero"/><path fill="#333333" d="M 178.191406 110.886719 C 183.289062 109.390625 189.992188 109.84375 195.378906 110.085938 C 201.984375 110.382812 208.140625 113.308594 213.972656 116.511719 C 214.84375 116.992188 214.257812 118.394531 213.335938 118.050781 C 211.03125 117.203125 209.425781 117.125 207.058594 116.011719 C 203.734375 114.445312 200.488281 113.585938 196.929688 113.160156 C 190.871094 112.429688 184.070312 114.753906 178.207031 112.738281 C 177.253906 112.410156 177.308594 111.148438 178.191406 110.886719 " fill-opacity="1" fill-rule="nonzero"/><path fill="#333333" d="M 180.289062 104.71875 C 185.375 103.046875 189.363281 102.191406 194.769531 103.371094 C 197.96875 104.074219 200.175781 104.945312 203.050781 106.230469 C 205.410156 107.292969 207.992188 107.96875 210.015625 109.640625 C 210.578125 110.109375 209.917969 110.820312 209.34375 110.441406 C 210.511719 111.214844 203.488281 108.324219 203.980469 108.453125 C 201.234375 107.746094 198.707031 106.621094 195.925781 106.058594 C 192.265625 105.320312 189.4375 104.839844 185.871094 105.863281 C 183.910156 106.421875 182.390625 106.734375 180.351562 106.175781 C 179.585938 105.960938 179.617188 104.941406 180.289062 104.71875 " fill-opacity="1" fill-rule="nonzero"/><path fill="#333333" d="M 172.335938 96.925781 C 175.578125 93.3125 183.101562 94.886719 187.527344 95.480469 C 193.289062 96.25 199.628906 98.242188 204.011719 102.433594 C 204.375 102.78125 203.960938 103.394531 203.511719 103.210938 C 199.175781 101.460938 195.042969 99.375 190.398438 98.539062 C 184.363281 97.457031 178.933594 97.605469 173.027344 98.320312 C 172.199219 98.421875 171.851562 97.46875 172.335938 96.925781 " fill-opacity="1" fill-rule="nonzero"/><path fill="#333333" d="M 167.648438 91.675781 C 168.5 89.289062 171.886719 88.699219 174.144531 88.300781 C 176.796875 87.832031 179.644531 88.144531 182.265625 88.957031 C 183.355469 89.300781 182.933594 91.101562 181.839844 90.855469 C 179.410156 90.308594 177.105469 90.335938 174.746094 90.84375 C 172.691406 91.285156 170.617188 92.949219 168.488281 92.800781 C 167.96875 92.765625 167.457031 92.207031 167.648438 91.675781 " fill-opacity="1" fill-rule="nonzero"/><path fill="#333333" d="M 160.6875 86.941406 C 160.007812 85.214844 162.429688 84.769531 163.53125 84.742188 C 164.582031 84.714844 165.632812 84.988281 166.683594 85.089844 C 167.816406 85.195312 168.90625 85.070312 170.027344 85.113281 C 171.300781 85.164062 171.210938 86.996094 170.003906 87.042969 C 169.246094 87.074219 168.601562 87.28125 167.910156 87.535156 C 167.003906 87.871094 166.125 87.851562 165.167969 87.769531 C 164.148438 87.675781 163.074219 87.8125 162.070312 87.695312 C 161.546875 87.632812 160.910156 87.507812 160.6875 86.941406 " fill-opacity="1" fill-rule="nonzero"/><path fill="#333333" d="M 153.960938 81.886719 C 155.90625 81.796875 157.652344 81.160156 159.492188 80.664062 C 160.746094 80.324219 161.46875 82.496094 160.238281 82.90625 C 158.316406 83.542969 156.402344 84.464844 154.304688 84.460938 C 152.675781 84.457031 152.285156 81.964844 153.960938 81.886719 " fill-opacity="1" fill-rule="nonzero"/><path fill="#333333" d="M 146.15625 78.328125 C 146.886719 77.445312 148.523438 77.4375 149.617188 77.46875 C 151.160156 77.511719 152.886719 77.421875 154.394531 77.964844 C 154.882812 78.136719 154.664062 78.863281 154.175781 78.707031 C 151.667969 77.910156 149.414062 79.101562 147.1875 79.851562 C 146.300781 80.148438 145.597656 79.003906 146.15625 78.328125 " fill-opacity="1" fill-rule="nonzero"/><path fill="#333333" d="M 127.710938 69.484375 C 127.90625 69.316406 128.101562 69.15625 128.304688 69 C 128.625 68.753906 129.007812 68.554688 129.375 68.378906 C 130.273438 67.9375 131.230469 67.59375 132.253906 67.503906 C 132.945312 67.445312 134.035156 67.472656 134.527344 68.113281 C 135.234375 69.035156 134.296875 70.105469 133.296875 69.746094 C 132.023438 69.289062 130.125 70.839844 129.253906 71.484375 C 128.160156 72.292969 126.699219 70.363281 127.710938 69.484375 " fill-opacity="1" fill-rule="nonzero"/><path fill="#333333" d="M 140.425781 76.625 C 140.628906 75.160156 142.207031 74.328125 143.445312 73.8125 C 144.398438 73.417969 145.449219 73.285156 146.488281 73.25 C 147.367188 73.222656 148.25 73.421875 149.09375 73.363281 C 150.210938 73.289062 150.363281 75.011719 149.367188 75.257812 C 147.921875 75.621094 146.347656 75.460938 144.882812 75.871094 C 143.558594 76.246094 142.503906 77.355469 141.105469 77.425781 C 140.679688 77.445312 140.371094 77.019531 140.425781 76.625 " fill-opacity="1" fill-rule="nonzero"/><path fill="#333333" d="M 134.726562 73.445312 C 134.621094 73.699219 134.621094 73.664062 134.714844 73.339844 C 134.808594 73.097656 134.992188 72.867188 135.144531 72.660156 C 135.496094 72.175781 136.121094 71.828125 136.625 71.523438 C 137.019531 71.273438 137.472656 71.195312 137.917969 71.105469 C 138.257812 71.03125 138.601562 70.992188 138.941406 70.96875 C 139.265625 70.949219 139.847656 71.101562 140.089844 71.03125 C 140.800781 70.828125 141.503906 71.773438 140.84375 72.257812 C 140.019531 72.855469 138.917969 72.699219 138.027344 73.207031 C 137.367188 73.582031 136.925781 74.15625 136.414062 74.691406 C 136.109375 75.015625 135.605469 75.085938 135.1875 74.859375 C 134.492188 74.46875 134.761719 74.015625 134.726562 73.445312 " fill-opacity="1" fill-rule="nonzero"/><path fill="#333333" d="M 121.453125 69.105469 C 121.863281 67.734375 123.636719 66.496094 125.105469 66.605469 C 125.578125 66.640625 126 67.3125 125.484375 67.59375 C 124.882812 67.921875 124.570312 68.632812 124.167969 69.144531 C 123.726562 69.703125 123.332031 70.113281 122.648438 70.367188 C 121.855469 70.660156 121.238281 69.824219 121.453125 69.105469 " fill-opacity="1" fill-rule="nonzero"/><path fill="#333333" d="M 115.339844 68.03125 C 116.035156 67.160156 117.0625 66.507812 118.042969 65.992188 C 118.453125 65.78125 118.929688 66.265625 118.703125 66.667969 C 118.175781 67.597656 117.527344 68.59375 116.667969 69.242188 C 115.925781 69.800781 114.707031 68.820312 115.339844 68.03125 " fill-opacity="1" fill-rule="nonzero"/><path fill="#333333" d="M 182.105469 176.722656 C 181.996094 176.488281 182.230469 176.191406 182.480469 176.273438 C 185.207031 177.148438 187.988281 176.757812 190.539062 175.855469 C 190.988281 175.695312 191.414062 176.269531 191.207031 176.664062 C 189.949219 179.105469 183.46875 179.746094 182.105469 176.722656 " fill-opacity="1" fill-rule="nonzero"/><path fill="#333333" d="M 150.226562 231.355469 C 163.523438 237.296875 177.488281 240.347656 191.566406 242.84375 C 199.234375 244.207031 215.792969 245.777344 228.945312 249.449219 C 257.886719 257.542969 291.910156 304.066406 316.3125 332.828125 C 351.9375 374.820312 471.402344 503.496094 471.402344 503.496094 C 477.558594 510.152344 480.519531 514.503906 485.601562 519.917969 C 494.738281 533.324219 511.421875 544.925781 524.128906 531.105469 C 528.394531 526.46875 535.761719 520.71875 535.953125 513.671875 C 536.082031 509.03125 534.03125 504.84375 531.238281 501.128906 C 529.515625 497.832031 527.152344 496.542969 523.523438 492.429688 C 515.886719 483.765625 511.246094 480.960938 503.050781 472.867188 C 503.050781 472.867188 378.390625 349.226562 337.589844 312.234375 C 309.648438 286.898438 264.273438 251.363281 257.136719 222.167969 C 253.902344 208.902344 252.878906 192.296875 251.769531 184.585938 C 249.730469 170.425781 247.144531 156.375 241.640625 142.890625 C 235.941406 128.910156 227.632812 115.714844 216.410156 105.296875 C 205.234375 94.925781 191.640625 86.824219 178.125 80.15625 C 164.042969 73.214844 149.109375 67.082031 134 63.25 C 121.265625 60.019531 105.535156 57.546875 93.511719 63 C 85.652344 66.566406 79.082031 72.929688 75.261719 80.660156 C 69.417969 92.5 71.367188 108.304688 74.179688 121.144531 C 77.511719 136.371094 83.148438 151.496094 89.625 165.800781 C 95.84375 179.535156 103.492188 193.386719 113.488281 204.894531 C 123.535156 216.460938 136.445312 225.195312 150.226562 231.355469 Z M 117.984375 203.539062 C 105.015625 189.8125 96.210938 171.261719 89.203125 154.117188 C 86.722656 148.050781 84.433594 141.875 82.386719 135.671875 C 78.132812 122.792969 75.398438 109.117188 75.816406 95.761719 C 76.007812 89.578125 77.1875 83.539062 80.777344 78.578125 C 84.296875 73.726562 91.796875 67.085938 97.765625 65.527344 C 119.929688 59.722656 145.746094 70.078125 166.460938 79.351562 C 183.363281 86.917969 201.613281 96.332031 214.90625 109.746094 C 227.882812 122.835938 236.601562 138.761719 241.703125 156.15625 C 248.730469 180.078125 246.683594 216.152344 260.796875 243.242188 C 265.566406 252.410156 308.246094 293.875 328.695312 311.820312 C 341.765625 323.285156 356.457031 337.292969 368.550781 349.792969 C 379.128906 360.722656 390.457031 370.832031 401.019531 381.746094 C 412.179688 393.273438 459.613281 438.335938 471.746094 449.558594 C 485.96875 462.714844 493.554688 470.578125 505.03125 480.738281 C 513.636719 488.363281 539.921875 506.21875 528.402344 519.472656 C 523.738281 524.839844 519.179688 532.894531 511.027344 532.871094 C 504.941406 532.859375 499.945312 528.367188 495.597656 524.328125 C 488.085938 517.359375 482.53125 508.589844 475.410156 501.253906 C 463.9375 489.445312 394.847656 410.042969 383.691406 398.511719 C 373.132812 387.597656 363.40625 375.945312 352.828125 365.011719 C 340.734375 352.507812 327.222656 337.359375 316.191406 323.917969 C 298.929688 302.890625 258.898438 258.867188 249.894531 253.792969 C 223.285156 238.800781 187.164062 239.660156 163.484375 231.851562 C 146.269531 226.179688 130.640625 216.941406 117.984375 203.539062 " fill-opacity="1" fill-rule="nonzero"/><path fill="#333333" d="M 506.40625 519.433594 C 507.617188 517.023438 511.085938 516.675781 513.183594 515.039062 C 516.429688 512.507812 520.34375 507.464844 519.449219 502.683594 C 519.226562 501.492188 520.921875 501.242188 521.515625 502.125 C 526.859375 510.09375 515.753906 522.558594 507.820312 522.160156 C 506.402344 522.09375 505.867188 520.5 506.40625 519.433594 " fill-opacity="1" fill-rule="nonzero"/><path fill="#333333" d="M 249.738281 202.808594 C 244.855469 170.886719 228.921875 128.390625 209.128906 109.484375 C 191.800781 92.917969 159.007812 81.878906 138.566406 70.90625 C 137.796875 70.492188 138.246094 69.289062 139.078125 69.539062 C 151.832031 73.460938 172.464844 83.074219 184.296875 89.433594 C 195.863281 95.660156 208.171875 103.84375 217.054688 113.703125 C 233.652344 132.136719 247.332031 174.238281 251.15625 202.570312 C 251.265625 203.398438 249.863281 203.625 249.738281 202.808594 " fill-opacity="1" fill-rule="nonzero"/><path fill="#333333" d="M 85.207031 135.972656 C 81.308594 127.191406 79.023438 117.628906 78.359375 108.238281 C 77.796875 100.242188 76.785156 90.457031 82.503906 84.472656 C 83.027344 83.925781 84.042969 84.824219 83.554688 85.402344 C 78.410156 91.554688 80.023438 102.523438 80.578125 110.1875 C 81.207031 118.953125 84.824219 127.089844 86.246094 135.714844 C 86.335938 136.265625 85.433594 136.488281 85.207031 135.972656 " fill-opacity="1" fill-rule="nonzero"/><path fill="#333333" d="M 105.515625 182.4375 C 105.246094 181.84375 106.046875 181.578125 106.417969 181.996094 C 112.699219 189.171875 117.65625 197.160156 124.484375 203.929688 C 134.3125 213.671875 146.453125 220.792969 158.742188 226.714844 C 169.957031 232.125 182.007812 238 194.230469 239.894531 C 194.734375 239.96875 194.667969 240.816406 194.167969 240.769531 C 182.265625 239.773438 171.042969 234.109375 160.050781 229.382812 C 148.097656 224.242188 136.164062 218.539062 126.59375 209.3125 C 118.609375 201.609375 110.125 192.5625 105.515625 182.4375 " fill-opacity="1" fill-rule="nonzero"/><path fill="#333333" d="M 369.199219 237.0625 C 367.328125 242.3125 367.261719 249.398438 362.875 253.472656 C 362.578125 253.746094 362.21875 253.3125 362.429688 253.015625 C 364.789062 249.675781 365.386719 245.421875 366.125 241.597656 C 366.484375 239.761719 367.21875 238.039062 368.578125 236.6875 C 368.855469 236.417969 369.328125 236.691406 369.199219 237.0625 " fill-opacity="1" fill-rule="nonzero"/><path fill="#333333" d="M 363.265625 240.769531 C 363.46875 244.683594 360.09375 248.230469 359.90625 252.203125 C 359.882812 252.683594 359.15625 252.703125 359.085938 252.261719 C 358.492188 248.464844 360.515625 244.019531 362.238281 240.589844 C 362.496094 240.082031 363.238281 240.238281 363.265625 240.769531 " fill-opacity="1" fill-rule="nonzero"/><path fill="#333333" d="M 358.679688 241.992188 C 358.4375 243.144531 357.832031 244.300781 357.378906 245.402344 C 356.949219 246.453125 356.570312 247.523438 356.117188 248.566406 C 356.003906 248.84375 355.558594 248.695312 355.636719 248.410156 C 356.269531 246.324219 356.519531 243.441406 358.097656 241.757812 C 358.316406 241.527344 358.753906 241.640625 358.679688 241.992188 " fill-opacity="1" fill-rule="nonzero"/><path fill="#333333" d="M 354.28125 242.804688 C 354.273438 242.785156 354.257812 242.769531 354.246094 242.757812 C 354.449219 242.824219 354.582031 243.0625 354.59375 243.273438 C 354.613281 244.535156 353.851562 245.929688 353.328125 247.078125 C 352.921875 247.976562 352.472656 249.078125 351.714844 249.761719 C 351.457031 249.996094 351.140625 249.707031 351.335938 249.425781 C 351.945312 248.5625 352.183594 247.058594 352.488281 246.082031 C 352.804688 245.082031 352.917969 243.617188 353.664062 242.820312 C 353.84375 242.636719 354.105469 242.671875 354.28125 242.804688 " fill-opacity="1" fill-rule="nonzero"/><path fill="#333333" d="M 73.457031 526.121094 C 75.347656 526.414062 75.628906 528.824219 75.804688 530.390625 C 76.039062 532.507812 75.625 534.957031 75.0625 537.050781 C 74.878906 537.753906 73.851562 537.539062 73.992188 536.835938 C 74.378906 534.875 74.316406 532.964844 74.007812 531.03125 C 73.78125 529.609375 72.820312 528.25 72.789062 526.839844 C 72.785156 526.488281 73.042969 526.058594 73.457031 526.121094 " fill-opacity="1" fill-rule="nonzero"/><path fill="#333333" d="M 80.394531 528.265625 C 81.121094 529.050781 81.339844 530.054688 80.976562 530.992188 C 81.019531 531.375 80.957031 531.769531 80.804688 532.179688 C 80.558594 532.835938 80.628906 533.398438 80.683594 534.089844 C 80.800781 535.445312 80.839844 536.8125 79.742188 537.832031 C 79.25 538.289062 78.484375 537.6875 78.875 537.125 C 79.496094 536.238281 78.847656 534.957031 78.613281 534.078125 C 78.523438 533.761719 78.246094 533.171875 78.289062 532.820312 C 78.277344 532.925781 78.4375 531.402344 78.566406 531.589844 C 78.347656 531.269531 78.371094 530.691406 78.613281 530.359375 C 78.726562 530.191406 78.675781 529.390625 78.699219 529.164062 C 78.738281 528.832031 78.929688 528.601562 79.128906 528.339844 C 79.464844 527.902344 80.054688 527.902344 80.394531 528.265625 " fill-opacity="1" fill-rule="nonzero"/><path fill="#333333" d="M 86.59375 529.199219 C 87.503906 529.832031 87.25 531.257812 87.121094 532.25 C 86.972656 533.441406 86.449219 534.773438 86.683594 535.960938 C 86.886719 536.976562 85.382812 537.570312 85.089844 536.539062 C 84.777344 535.425781 84.957031 534.230469 85.097656 533.070312 C 85.167969 532.464844 85.253906 531.863281 85.320312 531.253906 C 85.367188 530.734375 85.289062 530.0625 85.542969 529.570312 C 85.746094 529.183594 86.203125 528.929688 86.59375 529.199219 " fill-opacity="1" fill-rule="nonzero"/><path fill="#333333" d="M 70.105469 518.960938 C 70.703125 520.816406 70.132812 523.175781 70.003906 525.132812 C 69.835938 527.6875 70.074219 530.152344 70.277344 532.667969 C 70.371094 533.78125 68.695312 533.941406 68.40625 532.980469 C 67.734375 530.738281 67.550781 528.339844 67.554688 525.96875 C 67.554688 523.695312 67.527344 520.789062 68.871094 518.78125 C 69.195312 518.304688 69.957031 518.488281 70.105469 518.960938 " fill-opacity="1" fill-rule="nonzero"/><path fill="#333333" d="M 66.671875 509.890625 C 67.632812 512.292969 66.84375 514.925781 66.214844 517.433594 C 65.832031 518.941406 65.558594 520.46875 65.207031 521.984375 C 65.023438 522.769531 64.472656 524.191406 64.824219 524.949219 C 65.109375 525.566406 64.273438 526.082031 63.832031 525.628906 C 62.207031 523.988281 63.125 521.414062 63.292969 519.292969 C 63.410156 517.773438 63.875 516.246094 64.171875 514.742188 C 64.511719 512.996094 64.664062 511.480469 65.5 509.859375 C 65.773438 509.324219 66.476562 509.390625 66.671875 509.890625 " fill-opacity="1" fill-rule="nonzero"/><path fill="#333333" d="M 63.117188 508.507812 C 64.28125 508.925781 63.257812 511.027344 63.007812 511.761719 C 62.527344 513.179688 61.945312 514.683594 61.8125 516.164062 C 61.707031 517.3125 60 517.1875 60.054688 516.058594 C 60.109375 514.929688 61.027344 507.75 63.117188 508.507812 " fill-opacity="1" fill-rule="nonzero"/><path fill="#333333" d="M 92.453125 526.972656 C 92.691406 526.792969 93.058594 526.867188 93.242188 527.050781 C 94.183594 527.957031 93.210938 529.1875 92.976562 530.277344 C 92.816406 531.011719 92.480469 531.765625 92.273438 532.507812 C 92.105469 533.085938 91.667969 533.527344 91.242188 533.933594 C 90.738281 534.410156 89.941406 533.695312 90.386719 533.160156 C 91.199219 532.179688 91.039062 530.898438 91.242188 529.726562 C 91.414062 528.773438 91.628906 527.585938 92.453125 526.972656 " fill-opacity="1" fill-rule="nonzero"/><path fill="#333333" d="M 100.105469 519.6875 C 100.507812 519.628906 100.851562 520.003906 100.855469 520.378906 C 100.855469 520.574219 100.777344 520.765625 100.644531 520.910156 C 100.546875 521.019531 99.902344 521.195312 99.921875 521.15625 C 100.6875 521.222656 100.933594 521.519531 100.660156 522.027344 C 100.539062 522.390625 100.425781 522.753906 100.320312 523.121094 C 100.128906 523.824219 99.953125 524.535156 99.769531 525.242188 C 99.542969 526.117188 99.105469 526.953125 98.648438 527.734375 C 98.320312 528.304688 97.359375 527.941406 97.617188 527.324219 C 98.328125 525.621094 98.117188 523.710938 98.382812 521.945312 C 98.535156 520.945312 99.015625 519.84375 100.105469 519.6875 " fill-opacity="1" fill-rule="nonzero"/><path fill="#333333" d="M 107.714844 511.488281 C 107.972656 511.484375 108.214844 511.59375 108.382812 511.773438 C 108.675781 512.101562 108.511719 512.339844 108.566406 512.703125 C 108.894531 512.636719 109.03125 512.753906 108.964844 513.054688 C 108.96875 513.167969 108.972656 513.273438 108.964844 513.382812 C 108.960938 513.761719 108.839844 514.164062 108.71875 514.539062 C 108.445312 515.382812 107.824219 516.34375 107.71875 517.191406 C 107.5625 518.488281 105.679688 518.277344 105.753906 517.019531 C 105.792969 516.335938 106.078125 515.625 106.285156 514.96875 C 106.5625 514.089844 106.652344 513.347656 106.691406 512.449219 C 106.71875 511.925781 107.195312 511.488281 107.714844 511.488281 " fill-opacity="1" fill-rule="nonzero"/><path fill="#333333" d="M 73.226562 494.289062 C 73.632812 495.964844 72.644531 497.394531 71.71875 498.804688 C 70.460938 500.71875 68.765625 503.125 68.265625 505.316406 C 68.171875 505.722656 67.539062 505.667969 67.546875 505.261719 C 67.570312 503.28125 68.597656 501.804688 69.457031 500.027344 C 70.390625 498.101562 71.296875 496.15625 72.261719 494.242188 C 72.496094 493.78125 73.105469 493.789062 73.226562 494.289062 " fill-opacity="1" fill-rule="nonzero"/><path fill="#333333" d="M 79.5 489.238281 C 79.75 489.839844 79.75 490.035156 79.644531 490.683594 C 79.550781 491.242188 79.367188 492.332031 78.976562 492.804688 C 78.394531 493.503906 78.039062 494.371094 77.515625 495.121094 C 77.265625 495.40625 77.003906 495.683594 76.730469 495.949219 C 76.171875 496.511719 75.6875 498.125 75.335938 498.964844 C 75.015625 499.734375 73.746094 499.375 73.976562 498.570312 C 74.273438 497.539062 74.492188 496.5 74.917969 495.503906 C 75.261719 494.710938 75.9375 494.105469 76.328125 493.332031 C 76.640625 492.722656 77.222656 492.105469 77.320312 491.429688 C 77.441406 490.59375 77.921875 489.738281 78.421875 489.0625 C 78.742188 488.625 79.335938 488.835938 79.5 489.238281 " fill-opacity="1" fill-rule="nonzero"/><path fill="#333333" d="M 87.898438 482.097656 C 88.636719 483.46875 87.28125 484.988281 86.359375 486.023438 C 84.738281 487.855469 83.710938 489.902344 83.273438 492.289062 C 83.109375 493.160156 81.742188 492.957031 81.785156 492.109375 C 81.867188 490.523438 82.347656 488.324219 83.207031 486.910156 C 83.664062 486.164062 84.222656 485.542969 84.808594 484.890625 C 85.625 483.988281 86.035156 482.863281 86.835938 481.980469 C 87.191406 481.585938 87.675781 481.679688 87.898438 482.097656 " fill-opacity="1" fill-rule="nonzero"/><path fill="#333333" d="M 94.992188 475.289062 C 95.429688 475.113281 95.804688 475.519531 95.648438 475.941406 C 95.230469 477.066406 94.449219 477.976562 93.851562 479.007812 C 92.910156 480.628906 92.253906 482.371094 91.75 484.152344 C 91.503906 485.015625 90.042969 484.738281 90.234375 483.859375 C 90.859375 481.058594 91.960938 476.539062 94.992188 475.289062 " fill-opacity="1" fill-rule="nonzero"/><path fill="#333333" d="M 102.4375 468.074219 C 102.796875 467.996094 103.183594 468.3125 103.109375 468.695312 C 102.804688 470.261719 101.539062 471.496094 100.785156 472.882812 C 100.058594 474.214844 99.421875 475.78125 99.511719 477.269531 C 99.554688 477.96875 98.394531 478.265625 98.265625 477.550781 C 97.96875 475.871094 98.105469 474.246094 98.691406 472.589844 C 99.300781 470.871094 100.453125 468.472656 102.4375 468.074219 " fill-opacity="1" fill-rule="nonzero"/><path fill="#333333" d="M 112.476562 458.386719 C 112.828125 458.183594 113.34375 458.5625 113.144531 458.953125 C 110.925781 463.394531 108.121094 467.769531 106.582031 472.523438 C 106.382812 473.144531 105.507812 472.851562 105.65625 472.246094 C 106.21875 469.902344 107.128906 467.191406 108.191406 465 C 109.328125 462.636719 110.042969 459.792969 112.476562 458.386719 " fill-opacity="1" fill-rule="nonzero"/><path fill="#333333" d="M 119.878906 451.078125 C 120.382812 450.890625 120.769531 451.414062 120.660156 451.867188 C 120.285156 453.410156 119.339844 455.269531 118.527344 456.65625 C 117.398438 458.570312 115.476562 461.035156 115.171875 463.199219 C 115.085938 463.8125 114.054688 463.769531 114.09375 463.15625 C 114.257812 460.675781 114.953125 458.949219 116.144531 456.703125 C 117.207031 454.703125 117.519531 451.96875 119.878906 451.078125 " fill-opacity="1" fill-rule="nonzero"/><path fill="#333333" d="M 127.171875 445.050781 C 127.675781 444.878906 128.066406 445.375 127.949219 445.839844 C 127.773438 446.550781 127.34375 447.089844 127.042969 447.761719 C 126.699219 448.53125 126.464844 449.371094 126.160156 450.15625 C 125.550781 451.78125 125.320312 453.445312 124.0625 454.761719 C 123.609375 455.234375 122.789062 454.617188 123.191406 454.085938 C 124.390625 452.503906 124.53125 449.929688 125.085938 448.0625 C 125.460938 446.789062 125.8125 445.523438 127.171875 445.050781 " fill-opacity="1" fill-rule="nonzero"/><path fill="#333333" d="M 131.53125 444.378906 C 132.355469 443.722656 133.5 444.835938 132.941406 445.695312 C 132.664062 446.125 132.308594 446.484375 132.117188 446.960938 C 131.910156 447.449219 131.832031 447.949219 131.773438 448.460938 C 131.667969 449.394531 130.160156 449.335938 130.144531 448.421875 C 130.125 446.925781 130.226562 445.414062 131.53125 444.378906 " fill-opacity="1" fill-rule="nonzero"/><path fill="#333333" d="M 374.910156 235.445312 C 374.210938 238.800781 373.042969 242.328125 371.65625 245.453125 C 370.796875 247.398438 369.765625 250.023438 368.105469 251.425781 C 367.539062 251.90625 366.839844 251.066406 367.25 250.515625 C 368.699219 248.554688 369.878906 244.914062 370.699219 242.695312 C 371.683594 240.050781 372.296875 237.332031 373.84375 234.925781 C 374.234375 234.320312 375.039062 234.816406 374.910156 235.445312 " fill-opacity="1" fill-rule="nonzero"/><path fill="#333333" d="M 476.046875 182.378906 C 475.578125 184.921875 474.339844 187.25 473.4375 189.660156 C 472.023438 193.429688 470.503906 196.882812 468.832031 200.523438 C 468.515625 201.207031 467.425781 200.882812 467.703125 200.144531 C 468.769531 197.246094 469.828125 194.398438 470.804688 191.460938 C 471.898438 188.164062 472.769531 184.640625 474.757812 181.742188 C 475.207031 181.097656 476.171875 181.699219 476.046875 182.378906 " fill-opacity="1" fill-rule="nonzero"/><path fill="#333333" d="M 486.605469 168.519531 C 486.414062 172.863281 482.789062 177.382812 481.0625 181.152344 C 479.300781 185.011719 478.292969 189.132812 476.6875 193.050781 C 476.515625 193.472656 475.902344 193.15625 476.058594 192.734375 C 477.519531 188.691406 478.148438 184.457031 479.902344 180.488281 C 481.722656 176.371094 483.617188 172.144531 485.855469 168.238281 C 486.074219 167.859375 486.621094 168.148438 486.605469 168.519531 " fill-opacity="1" fill-rule="nonzero"/><path fill="#333333" d="M 492.273438 165.964844 C 490.78125 173.792969 487.460938 181.375 484.195312 188.578125 C 483.890625 189.246094 482.84375 188.898438 482.984375 188.183594 C 483.785156 184.097656 485.566406 180.035156 486.816406 176.039062 C 487.953125 172.417969 489.179688 168.746094 491.34375 165.609375 C 491.625 165.207031 492.371094 165.453125 492.273438 165.964844 " fill-opacity="1" fill-rule="nonzero"/><path fill="#333333" d="M 497.136719 166.390625 C 497.136719 167.800781 496.789062 169.125 496.355469 170.457031 C 495.910156 171.800781 495.753906 172.882812 495.535156 174.222656 C 495.421875 174.925781 495.140625 175.550781 494.585938 175.980469 C 494.191406 176.289062 493.582031 175.878906 493.78125 175.394531 C 494.375 173.972656 494.144531 172.222656 494.554688 170.714844 C 494.972656 169.144531 495.542969 167.628906 496.257812 166.175781 C 496.460938 165.75 497.136719 165.9375 497.136719 166.390625 " fill-opacity="1" fill-rule="nonzero"/><path fill="#333333" d="M 465.652344 189.445312 C 465.835938 189.132812 466.425781 189.269531 466.375 189.65625 C 466.28125 190.34375 466.136719 191.011719 465.980469 191.675781 C 466.023438 192.640625 465.800781 193.375 465.339844 194.570312 C 464.367188 197.109375 463.96875 199.84375 463.273438 202.480469 C 462.359375 205.972656 461.171875 210.5 458.699219 213.316406 C 458.425781 213.636719 457.933594 213.269531 458.113281 212.90625 C 461.550781 205.894531 460.707031 197.035156 464.9375 190.40625 C 465.019531 190.277344 465.148438 190.226562 465.28125 190.207031 C 465.40625 189.953125 465.507812 189.691406 465.652344 189.445312 " fill-opacity="1" fill-rule="nonzero"/><path fill="#333333" d="M 458.964844 193.792969 C 459.445312 197.054688 457.890625 200.953125 457.238281 204.144531 C 456.601562 207.257812 455.761719 210.644531 454.128906 213.398438 C 453.828125 213.902344 453.105469 213.542969 453.316406 213 C 454.4375 210.144531 454.867188 206.855469 455.421875 203.851562 C 455.8125 201.734375 456.308594 199.847656 456.925781 197.980469 C 456.953125 197.839844 456.980469 197.703125 457.007812 197.5625 C 457.199219 196.554688 457.253906 195.402344 458 194.648438 C 458.058594 194.589844 458.140625 194.558594 458.214844 194.542969 C 458.324219 194.28125 458.429688 194.023438 458.546875 193.757812 C 458.625 193.570312 458.929688 193.570312 458.964844 193.792969 " fill-opacity="1" fill-rule="nonzero"/><path fill="#333333" d="M 460.949219 168.609375 C 460.25 173.285156 458.359375 177.753906 456.898438 182.234375 C 454.957031 188.183594 453.617188 194.378906 452.007812 200.429688 C 451.757812 201.363281 450.332031 201.042969 450.542969 200.09375 C 452.914062 189.332031 454.679688 178.050781 459.898438 168.191406 C 460.21875 167.585938 461.039062 168.003906 460.949219 168.609375 " fill-opacity="1" fill-rule="nonzero"/><path fill="#333333" d="M 454.316406 164.539062 C 453.984375 169.542969 451.835938 174.433594 450.601562 179.285156 C 449.230469 184.675781 448.246094 190.273438 446.085938 195.414062 C 445.753906 196.214844 444.414062 195.671875 444.683594 194.859375 C 448.027344 184.773438 448.839844 174.085938 453.132812 164.246094 C 453.414062 163.597656 454.359375 163.839844 454.316406 164.539062 " fill-opacity="1" fill-rule="nonzero"/><path fill="#333333" d="M 465.246094 152.28125 C 466.308594 153.921875 464.789062 156.019531 463.984375 157.5 C 462.964844 159.371094 462.105469 161.328125 461.105469 163.199219 C 460.824219 163.730469 460.136719 163.308594 460.222656 162.808594 C 460.550781 160.945312 461.023438 159.316406 461.667969 157.535156 C 462.050781 156.480469 462.613281 155.480469 463.082031 154.457031 C 463.460938 153.613281 463.589844 152.757812 464.34375 152.167969 C 464.640625 151.9375 465.023438 151.941406 465.246094 152.28125 " fill-opacity="1" fill-rule="nonzero"/><path fill="#333333" d="M 471.8125 151.769531 C 471.910156 153.183594 471.355469 154.464844 470.859375 155.753906 C 470.359375 157.050781 470.015625 158.394531 469.519531 159.691406 C 469.257812 160.386719 468.109375 159.964844 468.300781 159.257812 C 469.003906 156.695312 469.097656 153.523438 470.988281 151.46875 C 471.234375 151.203125 471.785156 151.410156 471.8125 151.769531 " fill-opacity="1" fill-rule="nonzero"/><path fill="#333333" d="M 442.386719 176.117188 C 442.679688 178.992188 441.71875 182.042969 441.179688 184.855469 C 440.617188 187.835938 439.589844 190.503906 438.425781 193.277344 C 438.054688 194.164062 436.546875 193.582031 436.851562 192.671875 C 438.007812 189.203125 438.714844 185.765625 439.210938 182.140625 C 439.515625 179.964844 439.773438 177.679688 440.976562 175.796875 C 441.382812 175.160156 442.308594 175.347656 442.386719 176.117188 " fill-opacity="1" fill-rule="nonzero"/><path fill="#333333" d="M 435.453125 171.273438 C 437.429688 171.0625 436.582031 174.492188 436.335938 175.375 C 435.1875 179.457031 433.828125 183 431.878906 186.765625 C 431.761719 187.003906 431.320312 186.914062 431.355469 186.632812 C 431.621094 184.496094 432.222656 182.527344 432.8125 180.460938 C 433.164062 179.21875 433.449219 177.953125 433.765625 176.703125 C 434.042969 175.601562 434.898438 173.515625 434.730469 172.316406 C 434.667969 171.863281 434.953125 171.332031 435.453125 171.273438 " fill-opacity="1" fill-rule="nonzero"/><path fill="#333333" d="M 443.183594 139.269531 C 441.597656 146.984375 438.097656 154.542969 435.175781 161.816406 C 432.847656 167.617188 431.101562 173.621094 428.976562 179.515625 C 428.84375 179.894531 428.304688 179.691406 428.394531 179.3125 C 430.183594 171.839844 432.070312 164.832031 434.578125 157.585938 C 435.824219 153.957031 437.285156 150.398438 438.546875 146.769531 C 439.539062 143.929688 440.074219 141.003906 441.898438 138.59375 C 442.378906 137.960938 443.324219 138.578125 443.183594 139.269531 " fill-opacity="1" fill-rule="nonzero"/><path fill="#333333" d="M 433.667969 143.15625 C 434.925781 147.527344 430.933594 153.621094 429.5 157.679688 C 427.578125 163.113281 427.691406 169.636719 424.347656 174.445312 C 423.898438 175.089844 423.023438 174.351562 423.28125 173.71875 C 425.054688 169.339844 425.378906 163.246094 426.589844 158.492188 C 427.320312 155.632812 428.675781 152.921875 429.746094 150.179688 C 430.664062 147.828125 431.082031 144.894531 432.75 142.957031 C 433.050781 142.613281 433.542969 142.710938 433.667969 143.15625 " fill-opacity="1" fill-rule="nonzero"/><path fill="#333333" d="M 450.082031 134.328125 C 449.640625 137.632812 448.921875 140.335938 447.714844 143.433594 C 446.9375 145.414062 446.863281 148.371094 445.558594 150.078125 C 445.265625 150.46875 444.585938 150.273438 444.636719 149.75 C 444.886719 147.09375 445.214844 144.675781 446.179688 142.101562 C 447.15625 139.492188 447.40625 136.277344 448.992188 133.992188 C 449.304688 133.542969 450.160156 133.703125 450.082031 134.328125 " fill-opacity="1" fill-rule="nonzero"/><path fill="#333333" d="M 422.894531 151.390625 C 423.933594 153.515625 422.574219 156.320312 422.007812 158.4375 C 421.433594 160.558594 421.21875 162.742188 420.617188 164.859375 C 420.296875 165.996094 419.632812 166.96875 419.136719 168.027344 C 418.871094 168.59375 417.949219 168.285156 418.097656 167.675781 C 418.75 165.035156 419.113281 162.398438 419.402344 159.699219 C 419.667969 157.175781 420.25 153.109375 421.980469 151.253906 C 422.234375 150.984375 422.734375 151.0625 422.894531 151.390625 " fill-opacity="1" fill-rule="nonzero"/><path fill="#333333" d="M 415.996094 148.140625 C 417.609375 150.027344 416.503906 154.144531 415.980469 156.324219 C 415.632812 157.765625 414.917969 159.097656 414.742188 160.578125 C 414.648438 161.371094 414.355469 161.910156 413.722656 162.378906 C 412.886719 162.996094 411.910156 161.808594 412.703125 161.132812 C 413.042969 160.839844 413.015625 158.367188 413.082031 157.929688 C 413.210938 157.007812 413.390625 156.097656 413.550781 155.183594 C 413.929688 153.074219 413.375 149.820312 414.925781 148.160156 C 415.1875 147.882812 415.734375 147.828125 415.996094 148.140625 " fill-opacity="1" fill-rule="nonzero"/><path fill="#333333" d="M 424.09375 118.691406 C 423.992188 123.175781 422.230469 127.824219 421.109375 132.148438 C 420.242188 135.511719 419.445312 139.710938 417.390625 142.546875 C 416.855469 143.28125 415.792969 142.546875 416.234375 141.769531 C 417.066406 140.300781 416.617188 138.96875 417.226562 137.535156 C 418.011719 135.699219 418.394531 133.632812 418.890625 131.707031 C 420.015625 127.386719 420.558594 122.257812 423.046875 118.480469 C 423.316406 118.074219 424.105469 118.074219 424.09375 118.691406 " fill-opacity="1" fill-rule="nonzero"/><path fill="#333333" d="M 432.734375 110.964844 C 433.5 115.039062 430.257812 119.683594 429.535156 123.699219 C 429.171875 125.679688 428.457031 129.121094 426.832031 130.445312 C 426.359375 130.832031 425.507812 130.292969 425.929688 129.738281 C 426.300781 129.242188 426.40625 127.070312 426.550781 126.316406 C 426.8125 124.875 427.101562 123.324219 427.488281 121.917969 C 428.511719 118.160156 429.539062 114.035156 431.855469 110.84375 C 432.074219 110.535156 432.644531 110.515625 432.734375 110.964844 " fill-opacity="1" fill-rule="nonzero"/><path fill="#333333" d="M 434.722656 117.054688 C 435.027344 116.863281 435.523438 117.054688 435.648438 117.382812 C 436.039062 118.363281 435.761719 119.472656 435.5625 120.472656 C 435.457031 120.964844 435.359375 121.453125 435.238281 121.9375 C 435.15625 122.28125 434.875 123.007812 434.945312 123.335938 C 434.996094 123.601562 434.808594 123.949219 434.585938 124.085938 C 434.488281 124.144531 434.390625 124.207031 434.285156 124.269531 C 433.699219 124.632812 432.953125 123.980469 433.175781 123.371094 C 433.074219 123.078125 433.050781 122.769531 433.039062 122.460938 C 433.003906 121.828125 433.070312 121.210938 433.132812 120.582031 C 433.261719 119.3125 433.574219 117.78125 434.722656 117.054688 " fill-opacity="1" fill-rule="nonzero"/><path fill="#333333" d="M 414.933594 127.128906 C 415.117188 128.984375 414.824219 130.21875 414.257812 132.035156 C 413.320312 135.035156 412.351562 138.128906 411.273438 141.113281 C 409.667969 145.558594 409.207031 150.324219 407.824219 154.835938 C 407.621094 155.496094 406.523438 155.507812 406.535156 154.726562 C 406.617188 150.503906 407.308594 146.214844 408.226562 142.105469 C 409.328125 137.21875 411.34375 131.246094 413.90625 126.945312 C 414.167969 126.496094 414.878906 126.550781 414.933594 127.128906 " fill-opacity="1" fill-rule="nonzero"/><path fill="#333333" d="M 406.148438 133.21875 C 406.394531 135.390625 405.335938 137.503906 404.632812 139.519531 C 403.867188 141.703125 403.714844 144.648438 402.296875 146.523438 C 401.925781 147.019531 400.957031 146.691406 401.234375 146.039062 C 401.519531 145.367188 401.410156 143.976562 401.4375 143.222656 C 401.46875 141.992188 401.761719 140.890625 402.117188 139.71875 C 402.800781 137.4375 403.445312 134.691406 405.019531 132.882812 C 405.335938 132.519531 406.09375 132.714844 406.148438 133.21875 " fill-opacity="1" fill-rule="nonzero"/><path fill="#333333" d="M 399.621094 134.835938 C 400.300781 136.296875 399.210938 138.160156 398.945312 139.640625 C 398.730469 140.859375 396.886719 140.351562 397.09375 139.144531 C 397.214844 138.453125 397.402344 137.78125 397.601562 137.109375 C 397.855469 136.265625 398.089844 135.339844 398.710938 134.695312 C 398.960938 134.4375 399.464844 134.496094 399.621094 134.835938 " fill-opacity="1" fill-rule="nonzero"/><path fill="#333333" d="M 315.074219 287.65625 C 315.289062 286.074219 315.3125 284.472656 316.507812 283.292969 C 316.84375 282.964844 317.363281 283.292969 317.351562 283.710938 C 317.277344 286.746094 316.082031 289.640625 315.746094 292.632812 C 315.691406 293.160156 314.898438 293.078125 314.847656 292.585938 C 314.679688 290.859375 314.847656 289.371094 315.074219 287.65625 " fill-opacity="1" fill-rule="nonzero"/><path fill="#333333" d="M 317.417969 291.449219 C 317.890625 290.761719 317.746094 289.574219 317.96875 288.777344 C 318.296875 287.585938 318.222656 286.515625 319.28125 285.65625 C 319.589844 285.410156 319.976562 285.675781 319.972656 286.035156 C 319.964844 286.398438 319.90625 286.785156 319.800781 287.132812 C 319.59375 287.800781 319.640625 288.558594 319.363281 289.183594 C 318.925781 290.171875 319.160156 291.347656 318.480469 292.25 C 318.027344 292.851562 316.996094 292.074219 317.417969 291.449219 " fill-opacity="1" fill-rule="nonzero"/><path fill="#333333" d="M 310.878906 289.769531 C 311.5625 288.695312 311.257812 287.433594 311.605469 286.277344 C 311.953125 285.132812 312.003906 284.023438 312.097656 282.835938 C 312.222656 281.285156 312.855469 279.5625 313.867188 278.390625 C 314.015625 278.21875 314.371094 278.238281 314.46875 278.457031 C 315.304688 280.351562 314.042969 282.519531 313.96875 284.476562 C 313.90625 285.871094 313.242188 286.84375 313.078125 288.296875 C 312.972656 289.25 312.617188 289.972656 312.011719 290.699219 C 311.390625 291.445312 310.378906 290.546875 310.878906 289.769531 " fill-opacity="1" fill-rule="nonzero"/><path fill="#333333" d="M 308.90625 283.898438 C 308.984375 282.914062 309.078125 282.019531 309.558594 281.148438 C 309.707031 280.882812 310.113281 280.910156 310.25 281.167969 C 310.757812 282.136719 310.652344 283.09375 310.550781 284.160156 C 310.449219 285.179688 310.355469 286.238281 310.136719 287.238281 C 309.988281 287.949219 309.015625 287.933594 308.882812 287.226562 C 308.675781 286.128906 308.8125 285 308.90625 283.898438 " fill-opacity="1" fill-rule="nonzero"/><path fill="#333333" d="M 295.839844 305.167969 C 295.984375 304.53125 296.886719 304.640625 296.949219 305.265625 C 297.296875 308.683594 295.703125 311.921875 294.699219 315.121094 C 294.152344 316.875 293.40625 319.363281 291.566406 320.078125 C 291.160156 320.238281 290.789062 319.882812 290.835938 319.476562 C 291.398438 314.519531 294.746094 310.015625 295.839844 305.167969 " fill-opacity="1" fill-rule="nonzero"/><path fill="#333333" d="M 296.78125 313.746094 C 297.363281 312.355469 297.351562 310.988281 298.777344 310.074219 C 299.269531 309.753906 300 310.378906 299.75 310.914062 C 298.746094 313.085938 299.046875 317.308594 296.246094 318.21875 C 295.878906 318.335938 295.433594 318.160156 295.386719 317.734375 C 295.210938 316.300781 296.25 315.015625 296.78125 313.746094 " fill-opacity="1" fill-rule="nonzero"/><path fill="#333333" d="M 288.367188 313.0625 C 289.742188 309.945312 292.039062 306.636719 292.679688 303.28125 C 292.832031 302.488281 293.957031 302.636719 293.921875 303.4375 C 293.769531 306.65625 291.765625 310.007812 290.515625 312.941406 C 289.324219 315.722656 288.105469 318.535156 286.234375 320.933594 C 286.042969 321.175781 285.554688 321.035156 285.632812 320.691406 C 286.242188 318.042969 287.277344 315.546875 288.367188 313.0625 " fill-opacity="1" fill-rule="nonzero"/><path fill="#333333" d="M 286.007812 309.601562 C 287.105469 308.152344 287.246094 306.523438 288.847656 305.425781 C 289.085938 305.265625 289.527344 305.46875 289.359375 305.792969 C 288.847656 306.785156 288.53125 307.796875 288.335938 308.894531 C 288.097656 310.226562 287.8125 310.480469 287.230469 311.769531 C 286.484375 313.402344 286.527344 315.457031 284.5 315.957031 C 284.0625 316.0625 283.777344 315.597656 283.796875 315.234375 C 283.882812 313.324219 284.875 311.105469 286.007812 309.601562 " fill-opacity="1" fill-rule="nonzero"/><path fill="#333333" d="M 282.355469 306.644531 C 282.976562 305.40625 284.796875 306.566406 284.175781 307.792969 C 283.148438 309.808594 282.183594 312.214844 280.652344 313.886719 C 280.253906 314.3125 279.476562 313.96875 279.496094 313.394531 C 279.585938 311.019531 281.316406 308.714844 282.355469 306.644531 " fill-opacity="1" fill-rule="nonzero"/><path fill="#333333" d="M 72.957031 511.167969 C 75.363281 512.382812 75.71875 515.851562 77.351562 517.945312 C 79.878906 521.195312 84.921875 525.109375 89.707031 524.210938 C 90.898438 523.988281 91.152344 525.691406 90.269531 526.28125 C 82.292969 531.625 69.835938 520.519531 70.226562 512.582031 C 70.296875 511.167969 71.894531 510.636719 72.957031 511.167969 " fill-opacity="1" fill-rule="nonzero"/><g clip-path="url(#5bb127d65c)"><path fill="#333333" d="M 316.644531 295.359375 C 325.339844 286.382812 334.242188 277.609375 343.339844 269.101562 C 354.039062 259.085938 367.550781 248.710938 380.886719 242.445312 C 391.398438 237.5 398.894531 242.890625 409.628906 243.210938 C 421.164062 243.5625 429.738281 238.378906 437.90625 232.777344 C 446.769531 226.699219 455.742188 220.691406 463.597656 213.367188 C 471.632812 205.867188 478.347656 198.085938 485.277344 189.617188 C 492.171875 181.1875 499.894531 172.71875 507.183594 164.65625 C 514.414062 156.65625 539.445312 128.605469 547.011719 117.984375 C 547.785156 116.699219 548.414062 115.273438 548.507812 113.882812 C 544.488281 115.3125 540.703125 119.851562 537.6875 122.296875 C 534.046875 125.257812 530.480469 128.121094 527.113281 131.402344 C 507.84375 150.210938 488.085938 167.960938 468.320312 187.492188 C 464.851562 190.917969 461.199219 197.070312 455.476562 193.941406 C 448.230469 191.882812 450.90625 182.238281 453.605469 178.957031 C 461.734375 169.097656 471.8125 160.839844 481.011719 152.042969 C 490.3125 143.148438 500.390625 135.050781 509.316406 125.78125 C 514.101562 120.820312 518.535156 115.535156 523.117188 110.386719 C 524.546875 108.78125 535.332031 99.582031 534.003906 97.203125 C 533.566406 96.433594 533.011719 95.96875 532.054688 96.441406 C 530 97.457031 528.054688 98.804688 526.195312 100.066406 C 520.671875 103.792969 516.339844 109.054688 511.386719 113.417969 C 501.296875 122.300781 491.019531 130.941406 480.804688 139.664062 C 471.914062 147.261719 463.121094 154.945312 454.703125 163.0625 C 451.851562 165.8125 440.359375 179.738281 433.75 172.171875 C 426.40625 165.316406 440.34375 153.414062 443.183594 150.652344 C 461.203125 133.160156 477.460938 113.925781 494.660156 95.628906 C 496.902344 93.25 515.832031 76.105469 511.605469 73.558594 C 508.636719 73.613281 506.957031 76.226562 505.023438 78.058594 C 503.011719 79.964844 500.605469 81.339844 498.566406 83.210938 C 493.269531 88.0625 487.570312 92.476562 482.242188 97.292969 C 472.6875 105.914062 464.261719 115.71875 455.0625 124.722656 C 445.976562 133.628906 437.394531 143.429688 427.273438 151.226562 C 422.859375 154.625 416.710938 154.871094 413.503906 149.820312 C 410.347656 144.839844 413.265625 141.347656 416.875 138.0625 C 421.976562 133.410156 426.882812 128.515625 431.890625 123.761719 C 441.886719 114.265625 451.878906 104.769531 461.902344 95.300781 C 467.355469 90.144531 472.789062 84.96875 478.207031 79.773438 C 482 76.128906 485.707031 72.371094 489.164062 68.40625 C 489.496094 68.023438 496.738281 58.488281 495.238281 58.539062 C 493.847656 58.582031 492.402344 59.164062 491.09375 59.898438 C 480.609375 68.101562 451.613281 93.8125 443.382812 100.777344 C 435.292969 107.625 426.714844 113.875 418.644531 120.746094 C 408.261719 129.585938 401.277344 133.234375 393.5625 140.984375 C 385.933594 148.644531 379.746094 157.289062 373.316406 166.023438 C 367.449219 174 361.988281 182.40625 361.957031 193.941406 C 361.9375 202.449219 366.949219 210.066406 365.585938 218.652344 C 363.589844 231.21875 355 240.941406 346.257812 249.476562 C 336.328125 259.164062 326.242188 268.710938 316.101562 278.179688 C 313.238281 280.855469 310.347656 283.496094 307.445312 286.128906 C 306.078125 284.777344 304.695312 283.449219 303.296875 282.128906 C 305.179688 280.472656 307.066406 278.816406 308.949219 277.160156 C 317.375 269.757812 325.730469 262.503906 333.3125 254.253906 C 340.609375 246.316406 349.382812 238.914062 355.523438 230.015625 C 362.144531 220.410156 360.179688 213.152344 358.429688 202.464844 C 356.941406 193.398438 357.699219 185.03125 360.601562 177.550781 C 363.921875 168.984375 370.046875 162.503906 375.074219 155.207031 C 382.625 144.257812 393.035156 135.996094 403.214844 127.679688 C 408.117188 123.671875 413.035156 119.753906 417.910156 115.792969 C 423.933594 110.90625 429.894531 105.957031 435.703125 100.714844 C 446.816406 90.671875 458.296875 81.046875 470.027344 71.734375 C 476.601562 66.519531 483.269531 61.292969 490.371094 56.808594 C 490.527344 56.710938 490.683594 56.667969 490.851562 56.664062 C 492.804688 55.539062 495.152344 55.140625 498.117188 56.332031 C 498.863281 56.628906 499.605469 57.757812 499.53125 58.460938 C 498.78125 65.445312 492.277344 72.039062 487.78125 77.066406 C 474.636719 91.730469 458.792969 103.996094 444.695312 117.695312 C 438.085938 124.113281 431.390625 130.113281 425.007812 136.75 C 421.695312 140.1875 410.464844 147.304688 421.894531 149.152344 C 426.835938 146.875 432.476562 140.359375 434.136719 138.722656 C 437.785156 135.121094 441.394531 131.476562 445.082031 127.910156 C 453.335938 119.925781 461.355469 111.753906 469.253906 103.414062 C 476.890625 95.351562 485.714844 88.679688 493.910156 81.222656 C 497.53125 77.9375 501.605469 75.210938 505.125 71.820312 C 507.492188 69.542969 512.875 68.496094 515.148438 70.601562 C 517.710938 72.96875 515.898438 76.347656 515.160156 78.375 C 513.988281 81.582031 511.664062 84.417969 509.449219 86.890625 C 500.859375 96.464844 491.132812 104.976562 483.105469 115.082031 C 475.886719 124.167969 467.179688 131.9375 459.484375 140.558594 C 455.398438 145.136719 451.125 149.570312 446.800781 153.925781 C 445.132812 155.605469 433.039062 165.320312 436.308594 169.691406 C 440.570312 173.109375 449.820312 160.953125 451.550781 159.34375 C 456.046875 155.164062 460.625 151.039062 465.332031 147.105469 C 474.199219 139.695312 482.253906 131.246094 491.566406 124.332031 C 500.347656 117.816406 507.515625 109.457031 515.972656 102.5625 C 519.390625 99.773438 531.519531 88.890625 536.296875 94.179688 C 541.1875 99.589844 531.871094 108.4375 528.464844 111.914062 C 519.84375 120.714844 512.007812 130.375 502.773438 138.558594 C 494.179688 146.179688 485.746094 153.929688 477.496094 161.914062 C 473.8125 165.480469 470.054688 168.972656 466.328125 172.5 C 464.09375 174.625 454.097656 185.230469 455.796875 190.574219 C 457.402344 195.632812 464.953125 185.574219 466.289062 184.199219 C 473.402344 176.886719 482.886719 169.339844 490.234375 162.261719 C 504.382812 148.621094 512.113281 138.59375 527.203125 125.945312 C 530.167969 123.460938 536.648438 117.59375 539.6875 115.191406 C 542.351562 113.09375 545.605469 109.851562 549.386719 109.570312 C 550.089844 109.523438 551.191406 110.296875 551.46875 111.058594 C 552.554688 114.058594 552.082031 116.386719 550.898438 118.304688 C 550.886719 118.464844 550.835938 118.628906 550.734375 118.777344 C 542.332031 131.136719 532.707031 142.621094 522.628906 153.636719 C 515.300781 161.648438 508.570312 170.207031 501.230469 178.207031 C 490.230469 190.191406 480.75 203.488281 469.039062 214.808594 C 462.578125 221.050781 455.40625 226.515625 448.074219 231.730469 C 441.136719 236.679688 434.214844 242.21875 425.964844 245.109375 C 418.394531 247.761719 410.007812 248.246094 400.996094 246.460938 C 385.339844 243.355469 373.507812 253.019531 361.230469 261.195312 C 354.832031 265.453125 349.960938 271.332031 344.175781 276.371094 C 335.929688 283.558594 327.8125 291.246094 320.082031 299.214844 C 319 297.886719 317.835938 296.601562 316.644531 295.359375 " fill-opacity="1" fill-rule="nonzero"/></g><path fill="#333333" d="M 72.46875 490.363281 C 77.882812 485.285156 82.242188 482.320312 88.894531 476.160156 C 88.894531 476.160156 226.710938 347.832031 268.699219 312.199219 C 274.785156 307.039062 280.828125 301.804688 286.851562 296.550781 C 288.128906 298.027344 289.441406 299.476562 290.777344 300.902344 C 286.429688 304.679688 282.058594 308.425781 277.609375 312.082031 C 264.164062 323.109375 249.023438 336.628906 236.519531 348.71875 C 225.589844 359.300781 204.78125 377.882812 193.871094 388.445312 C 182.335938 399.597656 102.945312 468.703125 91.136719 480.171875 C 83.804688 487.300781 75.027344 492.847656 68.0625 500.359375 C 64.03125 504.710938 59.535156 509.703125 59.523438 515.796875 C 59.5 523.945312 67.550781 528.5 72.921875 533.171875 C 86.171875 544.691406 104.03125 518.40625 111.648438 509.792969 C 121.8125 498.316406 129.671875 490.730469 142.824219 476.511719 C 154.050781 464.378906 199.109375 416.933594 210.632812 405.773438 C 221.542969 395.214844 240.808594 375.023438 251.738281 364.449219 C 264.234375 352.347656 278.238281 337.65625 289.707031 324.582031 C 293.484375 320.28125 297.3125 316.003906 301.191406 311.773438 C 302.445312 313.105469 303.675781 314.453125 304.878906 315.828125 C 299.714844 321.746094 294.566406 327.664062 289.292969 333.480469 C 252.304688 374.28125 119.523438 507.816406 119.523438 507.816406 C 111.425781 516.007812 108.621094 520.652344 99.960938 528.292969 C 95.847656 531.921875 94.554688 534.28125 91.261719 536 C 87.542969 538.800781 83.359375 540.847656 78.726562 540.722656 C 71.671875 540.535156 65.921875 533.164062 61.285156 528.898438 C 47.46875 516.1875 59.070312 499.503906 72.46875 490.363281 " fill-opacity="1" fill-rule="nonzero"/></svg>